<?xml version="1.0" encoding="UTF-8"?>
<svg xmlns="http://www.w3.org/2000/svg" xmlns:xlink="http://www.w3.org/1999/xlink" viewBox="0 0 715 992.5">
  <defs>
    <style>
      .cls-1 {
        fill: url(#linear-gradient);
      }

      .cls-1, .cls-2, .cls-3, .cls-4, .cls-5, .cls-6, .cls-7 {
        stroke-width: 0px;
      }

      .cls-2 {
        fill: url(#radial-gradient);
      }

      .cls-3 {
        fill: url(#radial-gradient-2);
      }

      .cls-4 {
        fill: url(#linear-gradient-2);
      }

      .cls-5 {
        fill: #2cd7d2;
      }

      .cls-6 {
        fill: #fff;
      }

      .cls-7 {
        fill: #00283b;
      }
    </style>
    <linearGradient id="linear-gradient" x1="357.5" y1="88.37" x2="357.5" y2="664.63" gradientUnits="userSpaceOnUse">
      <stop offset="0" stop-color="#fdd106"/>
      <stop offset="1" stop-color="#fe452c"/>
    </linearGradient>
    <linearGradient id="linear-gradient-2" x1="357.5" y1="130.29" x2="357.5" y2="622.71" gradientUnits="userSpaceOnUse">
      <stop offset="0" stop-color="#fe9602"/>
      <stop offset="1" stop-color="#ff6606"/>
    </linearGradient>
    <radialGradient id="radial-gradient" cx="358.52" cy="539.92" fx="358.52" fy="516.07" r="23.85" gradientUnits="userSpaceOnUse">
      <stop offset="0" stop-color="#c2f950"/>
      <stop offset=".14" stop-color="#bdf751"/>
      <stop offset=".3" stop-color="#aff155"/>
      <stop offset=".46" stop-color="#98e85d"/>
      <stop offset=".63" stop-color="#79dc67"/>
      <stop offset=".81" stop-color="#50cc74"/>
      <stop offset=".99" stop-color="#1fb985"/>
      <stop offset="1" stop-color="#1cb886"/>
    </radialGradient>
    <radialGradient id="radial-gradient-2" cx="358.64" cy="219.42" fx="358.64" fy="194.96" r="24.46" gradientUnits="userSpaceOnUse">
      <stop offset="0" stop-color="#c2f950"/>
      <stop offset=".14" stop-color="#bdf751"/>
      <stop offset=".3" stop-color="#aff155"/>
      <stop offset=".46" stop-color="#98e85d"/>
      <stop offset=".63" stop-color="#79dc67"/>
      <stop offset=".81" stop-color="#50cc74"/>
      <stop offset=".99" stop-color="#1fb985"/>
      <stop offset="1" stop-color="#1cb886"/>
    </radialGradient>
  </defs>
  <g id="Hexagon">
    <path id="Back_shape" data-name="Back shape" class="cls-5" d="m658.88,492.55v-232.11c0-35.86-19.13-68.99-50.18-86.92l-201.01-116.05c-31.05-17.93-69.31-17.93-100.36,0l-201.01,116.05c-31.05,17.93-50.18,51.06-50.18,86.92v232.11c0,35.86,19.13,68.99,50.18,86.92l201.01,116.05c31.05,17.93,69.31,17.93,100.36,0l201.01-116.05c31.05-17.93,50.18-51.06,50.18-86.92Z"/>
    <path id="Middle_shape" data-name="Middle shape" class="cls-1" d="m619.5,474.01v-195.02c0-33.26-17.75-64-46.55-80.63l-168.9-97.51c-28.81-16.63-64.3-16.63-93.1,0l-168.9,97.51c-28.81,16.63-46.55,47.37-46.55,80.63v195.02c0,33.26,17.75,64,46.55,80.63l168.9,97.51c28.81,16.63,64.3,16.63,93.1,0l168.9-97.51c28.81-16.63,46.55-47.37,46.55-80.63Z"/>
    <path id="Front_shape" data-name="Front shape" class="cls-4" d="m574,487.36v-221.73c0-8.74-4.67-16.83-12.24-21.2l-192.02-110.86c-7.57-4.37-16.9-4.37-24.48,0l-192.02,110.86c-7.57,4.37-12.24,12.45-12.24,21.2v221.73c0,8.74,4.67,16.83,12.24,21.2l192.02,110.86c7.57,4.37,16.9,4.37,24.48,0l192.02-110.86c7.57-4.37,12.24-12.45,12.24-21.2Z"/>
  </g>
  <g id="Details">
    <g id="Details_Group" data-name="Details Group">
      <path class="cls-7" d="m233.4,538.52c-39.2.5-68.94-33.04-69.9-68.6-.63-23.51,7.61-43.97,26.43-58.85,7.61-6.02,16.22-11.06,24.98-15.28,29.25-14.1,58.9-27.38,88.16-41.46,22.34-10.75,33.67-28.99,34.03-53.85.14-10-.03-20,.21-29.99.09-3.71-1.08-5.89-4.35-7.99-28.27-18.17-31.62-58.27-6.64-79.86,14.57-12.6,31.63-14.73,49.25-8.62,16.67,5.78,26.66,18.44,30.26,35.68,4.53,21.72-3.74,41.29-22.44,53.55-2.91,1.91-3.91,3.91-3.9,7.27.07,13.16-.04,26.33-.27,39.49-.62,35.28-17.71,61.11-47.67,77.89-21.17,11.85-43.76,21.18-65.68,31.71-14.41,6.92-29.1,13.36-43.03,21.15-15.89,8.88-20.5,29.05-10.88,43.21,6.66,9.79,16.26,12.99,27.48,11.2,10.73-1.71,17.51-8.34,20.55-18.73.75-2.55,1.13-5.21,1.86-7.77,3.19-11.1,11.58-16.3,24.23-15.09,9.11.87,16.41,8.94,16.96,19.34,1.29,24.29-10.47,41.77-29.83,54.65-11.47,7.63-24.52,11.05-39.81,10.97Zm124.46-295.03c13.55.05,24.04-10.18,24.04-23.45,0-13.44-10.4-24.57-23.08-24.69-13.04-.13-23.5,10.89-23.44,24.68.06,12.61,10.41,23.42,22.48,23.46Z"/>
      <path class="cls-7" d="m481.69,231.05c24.73,1,44.73,13.27,58.25,36.02,23.39,39.36,4.92,86.26-31.04,104.2-30.4,15.16-61.29,29.34-91.88,44.13-13.8,6.67-25.81,15.71-32.03,30.19-2.76,6.43-4.19,13.67-4.91,20.68-.83,8.08-.06,16.31-.29,24.47-.11,3.74,1.15,5.97,4.36,8.08,25.48,16.75,30.44,52.39,10.58,74.61-17.49,19.55-49.59,21.35-68.49,3.84-20.34-18.85-21.93-50.49-3.36-69.96,3.19-3.35,6.88-6.33,10.72-8.91,2.56-1.72,3.46-3.53,3.48-6.49.11-12.66-.4-25.39.85-37.95,3.06-30.87,17.83-55.33,45.06-70.22,26.12-14.28,53.46-26.31,80.28-39.31,8.39-4.07,16.9-7.9,25.19-12.17,11.04-5.69,18.42-14.39,19.5-27.14,1.24-14.69-10.07-28.18-24.79-30.24-13.72-1.92-26.88,7.57-30.26,21.85-.38,1.62-.66,3.26-1.01,4.89-2.4,11.27-11.05,18.22-21.64,17.38-11.06-.88-19.67-9.35-20.25-20.47-.72-13.86,3.81-26.38,11.79-37.4,14.2-19.6,33.51-29.92,59.88-30.09Zm-99.81,309.61c.16-13.3-10.82-25.11-23.3-25.06-12.48.05-23.21,11.25-23.42,24.47-.21,12.61,10.59,23.92,23.08,24.17,13.48.27,23.48-9.7,23.65-23.58Z"/>
      <path class="cls-7" d="m202.19,305.96c7.6,7.09,14.88,13.86,22.13,20.65,2.67,2.5,5.42,4.95,7.85,7.67,6.55,7.32,7.63,15.31,3.36,22.96-4.24,7.58-13.31,12.12-22.17,9.62-5.38-1.52-10.9-4.39-15.05-8.11-11.63-10.44-22.74-21.48-33.76-32.59-12.03-12.13-12.73-27.13-1.05-39.65,12.7-13.61,26.1-26.6,39.65-39.38,8.43-7.95,21.68-7.24,29.44.61,7.73,7.81,7.99,19.35-.32,28.31-8.47,9.14-17.73,17.56-26.63,26.3-.94.92-1.82,1.91-3.44,3.6Z"/>
      <path class="cls-7" d="m512.31,466.3c-8.94-8.55-17.51-16.68-26-24.89-4.76-4.61-8.68-9.71-8.66-16.82.06-15.65,17.33-25.45,31.56-17.7,3.3,1.8,6.24,4.44,9,7.06,10.64,10.09,21.13,20.33,31.7,30.49,12.25,11.79,13.57,28.09,2.08,40.64-11.91,13.01-24.53,25.41-37.47,37.4-3.76,3.49-9.49,5.67-14.66,6.64-8.47,1.6-16.33-3.13-20.06-10.95-3.74-7.83-2.78-15.57,3.02-21.88,8.11-8.82,16.85-17.06,25.3-25.56,1.28-1.29,2.49-2.64,4.19-4.44Z"/>
      <path class="cls-2" d="m381.88,540.66c-.17,13.88-10.17,23.85-23.65,23.58-12.49-.25-23.29-11.56-23.08-24.17.22-13.22,10.94-24.42,23.42-24.47,12.49-.05,23.47,11.76,23.3,25.06Z"/>
      <path class="cls-3" d="m357.86,243.49c-12.06-.04-22.42-10.85-22.48-23.46-.06-13.79,10.4-24.81,23.44-24.68,12.68.12,23.08,11.25,23.08,24.69,0,13.27-10.48,23.5-24.04,23.45Z"/>
    </g>
  </g>
  <g id="Text">
    <g id="Background_Group" data-name="Background Group">
      <g>
        <g>
          <path class="cls-7" d="m199.18,832.13c-13.24,0-23.7-6.61-27.28-17.26-1.81-5.76.89-11.4,6.4-13.51,1.33-.51,2.72-.77,4.12-.77,4.31,0,8.3,2.5,10.17,6.38.81,1.68,2.62,3.69,6.59,3.69.53,0,5.13-.07,5.19-2.6.02-.66.05-1.7-4.7-3.06l-8.05-2.23c-16.73-5.17-20.24-15.42-20.24-23.1,0-13.83,11.71-24.26,27.23-24.26,10.94,0,19.75,4.91,24.15,13.47,2.53,4.9.98,10.63-3.69,13.62-2,1.28-4.06,1.92-6.14,1.92-2.28,0-5.63-.79-8.62-4.53-1.89-2.42-4.24-2.92-5.89-2.92-2.26,0-4.04,1.01-4.04,2.31s3.19,2.2,3.83,2.38l7.9,2.31c18.11,5.21,21.61,16.15,21.36,24.41-.11,7.48-3.38,13.77-9.45,18.13-5.03,3.61-11.72,5.6-18.83,5.6Z"/>
          <path class="cls-6" d="m198.61,759.91c9.5,0,16.59,4.12,20.14,11.03,1.63,3.17.29,6.23-2.11,7.77-1.3.83-2.54,1.21-3.72,1.21-1.94,0-3.67-1.05-5.11-2.84-2.78-3.55-6.43-4.6-9.4-4.6-4.89,0-8.54,2.88-8.54,6.81,0,1.73.67,4.89,7.1,6.71l7.87,2.3c16.02,4.6,18.32,13.62,18.13,19.95-.19,13.14-12.09,19.38-23.79,19.38s-20.14-5.66-23.02-14.2c-1.06-3.36.48-6.62,3.74-7.87.86-.33,1.7-.48,2.51-.48,2.74,0,5.08,1.69,6.12,3.83,1.44,2.97,4.7,6.24,10.65,6.24s9.59-2.69,9.69-7c.1-2.97-1.25-5.56-7.96-7.48l-7.96-2.21c-14.58-4.51-17.07-12.85-17.07-18.8,0-11.8,10.07-19.76,22.73-19.76m0-9c-18.09,0-31.73,12.36-31.73,28.76,0,8.28,3.27,14.24,7.64,18.52-6.21,3.52-9.17,10.84-6.93,17.95l.03.09.03.09c4.23,12.53,16.31,20.32,31.55,20.32,8.04,0,15.66-2.29,21.46-6.45,7.16-5.14,11.18-12.85,11.33-21.72.17-6.03-1.39-11.42-4.63-16.01-1.6-2.26-3.58-4.3-5.95-6.09.03-.02.06-.04.09-.06,6.67-4.27,8.88-12.46,5.27-19.47-5.19-10.11-15.45-15.91-28.14-15.91h0Z"/>
        </g>
        <g>
          <path class="cls-7" d="m248.39,831.75c-5.27,0-9.69-3.17-11.84-8.47l-13.53-31.86-.03-.09c-1.03-2.74-.8-5.88.61-8.63,1.36-2.63,3.68-4.55,6.38-5.27,1.19-.3,2.32-.44,3.41-.44,4.67,0,8.61,2.68,10.29,7l4.92,13.04,4.9-13c1.53-4.31,5.48-7.04,10.29-7.04,1.09,0,2.22.14,3.35.43,2.76.73,5.08,2.65,6.44,5.28,1.42,2.74,1.64,5.89.61,8.63l-.08.19-13.58,31.76c-2.1,5.46-6.2,8.47-11.56,8.47h-.58Z"/>
          <path class="cls-6" d="m263.78,781.49c.71,0,1.47.09,2.26.29,3.26.86,5.08,4.89,3.93,7.96l-13.62,31.84c-1.34,3.55-3.74,5.66-7.39,5.66h-.58c-3.55,0-6.23-2.11-7.67-5.66l-13.52-31.84c-1.15-3.07.67-7.1,3.93-7.96.8-.2,1.55-.29,2.25-.29,3.02,0,5.16,1.72,6.09,4.13l9.11,24.17,9.11-24.17c.86-2.41,3.04-4.13,6.08-4.13m0-9h0c-6.63,0-12.32,3.93-14.53,10.02l-.67,1.77-.69-1.83v-.04s-.03-.04-.03-.04c-2.36-6.09-7.91-9.88-14.48-9.88-1.45,0-2.95.19-4.44.56l-.06.02-.06.02c-3.92,1.04-7.29,3.79-9.23,7.55-2,3.87-2.3,8.35-.83,12.27l.07.18.08.18,13.5,31.79c2.88,7.01,8.84,11.2,15.98,11.2h.58c7.22,0,12.94-4.11,15.73-11.27l13.55-31.69.08-.19.07-.19c1.47-3.93,1.17-8.4-.83-12.27-1.94-3.76-5.3-6.51-9.23-7.55l-.06-.02-.06-.02c-1.49-.37-2.98-.56-4.44-.56h0Z"/>
        </g>
        <g>
          <path class="cls-7" d="m298.17,832.13c-15.91,0-27.9-12-27.9-27.9s11.74-27.62,27.9-27.62,27.42,12.04,27.42,28c0,3.85-2.53,7.12-6.02,8.22,1.4,2.12,1.95,4.67,1.54,7.17-.5,3.06-2.36,5.75-5.12,7.42-5.96,3.89-12.98,4.71-17.83,4.71Z"/>
          <path class="cls-6" d="m298.17,781.11c12.76,0,22.92,9.4,22.92,23.5,0,2.4-2.01,4.12-4.12,4.12h-28.87c.67,5.18,6.33,7.39,11.03,7.39,2.69,0,4.99-.19,7.77-2.11,1.32-.91,2.7-1.32,4.01-1.32,1.74,0,3.33.73,4.43,1.99,2.49,2.88,1.53,7-1.73,8.92-4.51,2.97-10.17,4.03-15.44,4.03-12.85,0-23.4-9.3-23.4-23.4s10.55-23.12,23.4-23.12m-9.88,19.28h19.38c-.67-5.47-4.41-8.15-9.4-8.15s-8.82,2.49-9.98,8.15m9.88-28.28c-18.47,0-32.4,13.81-32.4,32.12s13.93,32.4,32.4,32.4c7.79,0,14.78-1.87,20.23-5.4,3.85-2.35,6.45-6.16,7.16-10.5.33-2.01.23-4.04-.27-5.97,2.93-2.41,4.81-6.06,4.81-10.15,0-18.53-13.72-32.5-31.92-32.5h0Z"/>
        </g>
        <g>
          <path class="cls-7" d="m336.06,831.75c-6.02,0-11.04-4.63-11.21-10.31v-58.49c.17-5.69,5.2-10.32,11.21-10.32s11.21,4.69,11.21,10.45v58.22c0,5.76-5.03,10.45-11.21,10.45Z"/>
          <path class="cls-6" d="m336.06,757.13c3.65,0,6.71,2.59,6.71,5.95v58.22c0,3.36-3.07,5.95-6.71,5.95s-6.62-2.69-6.71-5.95v-58.22c.1-3.26,3.17-5.95,6.71-5.95m0-9c-8.42,0-15.47,6.59-15.71,14.68v.13s0,.13,0,.13v58.49c.24,8.1,7.29,14.68,15.71,14.68s15.71-6.7,15.71-14.95v-58.22c0-8.24-7.05-14.95-15.71-14.95h0Z"/>
        </g>
        <g>
          <path class="cls-7" d="m364.93,831.75c-6.02,0-11.04-4.63-11.21-10.31v-24.46c-4.72-.54-8.44-4.75-8.44-9.72s3.71-9.28,8.44-9.73v-7.38c.17-5.69,5.2-10.31,11.21-10.31s11.21,4.69,11.21,10.45v7.2h.58c5.13,0,9.3,4.38,9.3,9.78s-4.1,9.59-9.14,9.77h-.74v24.28c0,5.76-5.03,10.45-11.21,10.45Z"/>
          <path class="cls-6" d="m364.93,764.32c3.65,0,6.71,2.59,6.71,5.95v11.7h5.08c2.69,0,4.8,2.4,4.8,5.28s-2.11,5.18-4.8,5.28h-5.08v28.78c0,3.36-3.07,5.95-6.71,5.95s-6.62-2.69-6.71-5.95v-28.78h-3.65c-2.69-.1-4.8-2.49-4.8-5.28s2.11-5.28,4.8-5.28h3.65v-11.7c.1-3.26,3.17-5.95,6.71-5.95m0-9c-8.42,0-15.47,6.59-15.71,14.68v.13s0,.13,0,.13v3.82c-4.95,2.17-8.44,7.25-8.44,13.16s3.45,10.95,8.44,13.13v21.18c.24,8.1,7.29,14.68,15.71,14.68s15.71-6.7,15.71-14.95v-20.39c5.76-1.78,9.88-7.21,9.88-13.66s-4.17-11.94-9.88-13.69v-3.29c0-8.24-7.05-14.95-15.71-14.95h0Z"/>
        </g>
        <g>
          <path class="cls-7" d="m408.58,832.13c-15.91,0-27.9-12-27.9-27.9s11.74-27.62,27.9-27.62,27.42,12.04,27.42,28c0,3.85-2.53,7.12-6.02,8.22,1.4,2.12,1.96,4.67,1.54,7.17-.5,3.06-2.36,5.75-5.12,7.42-5.96,3.89-12.98,4.71-17.83,4.71Z"/>
          <path class="cls-6" d="m408.58,781.11c12.76,0,22.92,9.4,22.92,23.5,0,2.4-2.01,4.12-4.12,4.12h-28.87c.67,5.18,6.33,7.39,11.03,7.39,2.69,0,4.99-.19,7.77-2.11,1.32-.91,2.71-1.32,4.01-1.32,1.74,0,3.33.73,4.43,1.99,2.49,2.88,1.54,7-1.73,8.92-4.51,2.97-10.17,4.03-15.44,4.03-12.85,0-23.4-9.3-23.4-23.4s10.55-23.12,23.4-23.12m-9.88,19.28h19.38c-.67-5.47-4.41-8.15-9.4-8.15s-8.82,2.49-9.98,8.15m9.88-28.28c-18.47,0-32.4,13.81-32.4,32.12s13.93,32.4,32.4,32.4c7.79,0,14.78-1.87,20.23-5.4,3.85-2.35,6.45-6.16,7.16-10.5.33-2.01.23-4.04-.27-5.97,2.93-2.41,4.81-6.06,4.81-10.15,0-18.53-13.72-32.5-31.92-32.5h0Z"/>
        </g>
        <g>
          <path class="cls-7" d="m447.62,831.75c-6.13,0-11.5-5.15-11.5-11.02v-54.13c.17-5.91,5.43-10.9,11.5-10.9s11.5,4.94,11.5,11.02v1.69l5.92-8.21c1.94-2.82,5.28-4.49,8.95-4.49,2.1,0,4.12.56,5.84,1.63,2.82,1.77,4.82,4.65,5.35,7.73.47,2.72-.2,5.39-1.9,7.53l-15.68,20.52,18.64,20.06c1.9,1.88,2.92,4.48,2.87,7.34-.06,3.14-1.41,6.13-3.7,8.22-2.01,1.91-4.84,3-7.76,3-3.09,0-5.93-1.21-7.79-3.32l-10.73-12.11v4.44c0,6.08-5.16,11.02-11.5,11.02Z"/>
          <path class="cls-6" d="m447.62,760.2c3.84,0,7,2.97,7,6.52v15.63l14.1-19.57c1.15-1.69,3.2-2.58,5.26-2.58,1.22,0,2.43.31,3.46.95,3.07,1.92,4.51,5.85,2.3,8.63l-18.03,23.6,21.29,22.92c2.4,2.3,2.01,6.71-.67,9.11-1.25,1.2-3,1.8-4.7,1.8s-3.36-.6-4.41-1.8l-18.61-21.01v16.31c0,3.55-3.17,6.52-7,6.52s-7-3.07-7-6.52v-54c.1-3.45,3.36-6.52,7-6.52m0-9c-8.44,0-15.77,6.99-16,15.27v.12s0,.12,0,.12v54c0,8.41,7.33,15.52,16,15.52,6.63,0,12.32-3.93,14.75-9.51l4.12,4.65c2.7,3.06,6.77,4.83,11.15,4.83,4.04,0,7.97-1.53,10.81-4.19,3.19-2.91,5.07-7.07,5.15-11.44.07-4-1.43-7.82-4.12-10.54l-16-17.23,13.39-17.52c2.45-3.14,3.43-7.04,2.74-11.01-.76-4.38-3.45-8.31-7.39-10.77-2.45-1.52-5.29-2.32-8.23-2.32-5.13,0-9.84,2.39-12.62,6.4l-.4.56c-2.87-4.19-7.78-6.96-13.34-6.96h0Z"/>
        </g>
        <g>
          <path class="cls-7" d="m498.84,831.75c-6.02,0-11.04-4.63-11.21-10.31v-34.12c.14-4.7,3.59-8.67,8.18-9.91-5.62-1.32-9.81-6.2-9.81-12.02,0-6.77,5.76-12.27,12.84-12.27s12.65,5.39,12.65,12.27c0,5.79-4.1,10.67-9.61,12,4.71,1.24,8.17,5.28,8.17,10.06v33.86c0,5.76-5.03,10.45-11.21,10.45Z"/>
          <path class="cls-6" d="m498.84,757.61c4.51,0,8.15,3.36,8.15,7.77s-3.65,7.87-8.15,7.87-8.34-3.45-8.34-7.87,3.84-7.77,8.34-7.77m0,23.88c3.64,0,6.71,2.59,6.71,5.95v33.86c0,3.36-3.07,5.95-6.71,5.95s-6.62-2.69-6.71-5.95v-33.86c.1-3.26,3.17-5.95,6.71-5.95m0-32.88c-9.56,0-17.34,7.52-17.34,16.77,0,4.86,2.13,9.25,5.52,12.33-2.33,2.56-3.78,5.86-3.89,9.47v.13s0,.13,0,.13v34.12c.24,8.1,7.29,14.68,15.71,14.68s15.71-6.7,15.71-14.95v-33.86c0-3.77-1.47-7.21-3.9-9.84,3.29-3.07,5.34-7.41,5.34-12.22,0-9.4-7.53-16.77-17.15-16.77h0Z"/>
        </g>
        <g>
          <path class="cls-7" d="m527.52,831.75c-6.02,0-11.04-4.63-11.21-10.31v-24.46c-4.72-.54-8.44-4.75-8.44-9.72s3.71-9.28,8.44-9.73v-7.38c.17-5.69,5.2-10.31,11.21-10.31s11.21,4.69,11.21,10.45v7.2h.58c5.13,0,9.3,4.38,9.3,9.78s-4.1,9.59-9.14,9.77h-.74v24.28c0,5.76-5.03,10.45-11.21,10.45Z"/>
          <path class="cls-6" d="m527.52,764.32c3.64,0,6.71,2.59,6.71,5.95v11.7h5.08c2.69,0,4.8,2.4,4.8,5.28s-2.11,5.18-4.8,5.28h-5.08v28.78c0,3.36-3.07,5.95-6.71,5.95s-6.62-2.69-6.71-5.95v-28.78h-3.65c-2.69-.1-4.79-2.49-4.79-5.28s2.11-5.28,4.79-5.28h3.65v-11.7c.1-3.26,3.17-5.95,6.71-5.95m0-9c-8.42,0-15.47,6.59-15.71,14.68v.13s0,.13,0,.13v3.82c-4.95,2.17-8.44,7.25-8.44,13.16s3.45,10.95,8.44,13.13v21.18c.24,8.1,7.29,14.68,15.71,14.68s15.71-6.7,15.71-14.95v-20.39c5.76-1.78,9.88-7.21,9.88-13.66s-4.17-11.94-9.88-13.69v-3.29c0-8.24-7.05-14.95-15.71-14.95h0Z"/>
        </g>
        <g>
          <path class="cls-7" d="m102.26,946.85c-6.13,0-11.5-5.15-11.5-11.02v-52.96c.16-6.71,4.88-11.58,11.21-11.58h20.24c8.12,0,14.96,2.8,19.78,8.09,4.19,4.61,6.56,10.87,6.69,17.62v.23c-.32,9.44-4.98,17.28-12.52,21.57l7.59,10.91c1.6,2.4,2.09,5.26,1.43,8.14-.71,3.11-2.69,5.81-5.43,7.42-1.73,1.03-3.75,1.58-5.83,1.58-3.84,0-7.43-1.9-9.37-4.96l-10.79-17.81v11.76c0,6.08-5.16,11.02-11.5,11.02Zm19.57-44.58c3.14,0,3.84-3.56,3.84-4.8,0-1.68-1.02-4.8-3.46-4.8h-8.45v9.61h8.06Z"/>
          <path class="cls-6" d="m122.21,875.78c14.77,0,21.77,10.55,21.96,21.29-.29,8.63-5.08,16.88-14.87,19.76l10.74,15.44c1.92,2.88.67,7.19-2.59,9.11-1.09.65-2.32.96-3.55.96-2.22,0-4.39-1.02-5.57-2.87l-12.66-20.91h-6.43v17.26c0,3.55-3.17,6.52-7,6.52s-7-3.07-7-6.52v-52.85c.1-3.93,2.49-7.19,6.71-7.19h20.24m-12.95,30.98h12.56c5.47,0,8.34-4.99,8.34-9.3s-2.69-9.3-7.96-9.3h-12.95v18.61m12.95-39.98h-20.24c-8.74,0-15.49,6.87-15.71,15.98v.11s0,.11,0,.11v52.85c0,8.41,7.33,15.52,16,15.52,7.53,0,13.87-5.08,15.56-11.89l2.83,4.68.05.08.05.08c2.8,4.42,7.72,7.06,13.17,7.06,2.88,0,5.7-.77,8.14-2.22,3.77-2.22,6.52-5.97,7.51-10.27.94-4.09.22-8.2-2.02-11.57l-.05-.07-.05-.07-5-7.19c6.51-5.31,10.42-13.28,10.73-22.57v-.23s0-.23,0-.23c-.14-7.85-2.93-15.16-7.86-20.57-3.97-4.36-11.2-9.56-23.11-9.56h0Zm-3.95,30.37h2.87c.02.11.04.21.04.3,0,.1-.02.2-.04.3h-2.87v-.61h0Z"/>
        </g>
        <g>
          <path class="cls-7" d="m173.05,947.23c-15.96,0-28-12-28-27.9s11.78-27.62,28-27.62,28.1,11.61,28.1,27.62-12.08,27.9-28.1,27.9Zm0-33.57c-2.77,0-5.57,1.95-5.57,5.67,0,3.91,2.8,5.95,5.57,5.95,3.28,0,5.67-2.5,5.67-5.95,0-3.89-2.94-5.67-5.67-5.67Z"/>
          <path class="cls-6" d="m173.05,896.21c13.04,0,23.6,9.02,23.6,23.12s-10.55,23.4-23.6,23.4-23.5-9.3-23.5-23.4,10.45-23.12,23.5-23.12m0,33.57c5.56,0,10.17-4.32,10.17-10.45s-4.6-10.17-10.17-10.17-10.07,4.12-10.07,10.17,4.6,10.45,10.07,10.45m0-42.57c-8.77,0-16.88,3.1-22.83,8.73-6.24,5.9-9.67,14.21-9.67,23.38,0,18.47,13.97,32.4,32.5,32.4s32.6-13.93,32.6-32.4c0-9.18-3.46-17.49-9.74-23.4-5.97-5.62-14.09-8.72-22.86-8.72h0Zm0,33.57c-.69,0-1.07-.52-1.07-1.45,0-.38,0-1.17,1.07-1.17,1.17,0,1.17.73,1.17,1.17,0,.96-.39,1.45-1.17,1.45h0Z"/>
        </g>
        <g>
          <path class="cls-7" d="m221.97,947.23c-13.54,0-21-7.9-21-22.25v-22.44c0-5.76,5.03-10.45,11.21-10.45s11.04,4.63,11.21,10.31v18.55c0,4.32,1.03,4.32,3.27,4.32s3.75-.3,3.75-4.52v-18.22c0-5.76,5.03-10.45,11.21-10.45s11.05,4.63,11.21,10.31v34.12c-.17,5.69-5.2,10.31-11.21,10.31-3.22,0-6.13-1.27-8.18-3.31-3.28,2.32-7.34,3.69-11.48,3.69Z"/>
          <path class="cls-6" d="m241.63,896.6c3.55,0,6.62,2.69,6.71,5.95v33.86c-.1,3.26-3.17,5.95-6.71,5.95s-6.71-2.59-6.71-5.95v-1.06c-2.4,4.51-7.67,7.39-12.95,7.39-10.07,0-16.5-4.99-16.5-17.75v-22.44c0-3.36,3.07-5.95,6.71-5.95s6.62,2.69,6.71,5.95v18.42c0,5.95,2.21,8.82,7.77,8.82,4.7,0,8.25-2.21,8.25-9.02v-18.22c0-3.36,3.07-5.95,6.71-5.95m0-9c-6.76,0-12.54,4.08-14.75,9.79-2.27-5.7-8.05-9.79-14.7-9.79-8.66,0-15.71,6.7-15.71,14.95v22.44c0,16.75,9.53,26.75,25.5,26.75,3.97,0,7.82-.98,11.21-2.73,2.44,1.49,5.34,2.35,8.45,2.35,8.43,0,15.47-6.59,15.71-14.68v-.13s0-.13,0-.13v-34.12c-.24-8.1-7.29-14.68-15.71-14.68h0Z"/>
        </g>
        <g>
          <path class="cls-7" d="m270.31,946.85c-6.02,0-11.04-4.63-11.21-10.31v-24.46c-4.72-.54-8.44-4.75-8.44-9.72s3.71-9.28,8.44-9.73v-7.38c.17-5.69,5.2-10.31,11.21-10.31s11.21,4.69,11.21,10.45v7.2h.58c5.13,0,9.3,4.38,9.3,9.78s-4.1,9.59-9.14,9.77h-.74v24.28c0,5.76-5.03,10.45-11.21,10.45Z"/>
          <path class="cls-6" d="m270.31,879.43c3.65,0,6.71,2.59,6.71,5.95v11.7h5.08c2.69,0,4.8,2.4,4.8,5.28s-2.11,5.18-4.8,5.28h-5.08v28.78c0,3.36-3.07,5.95-6.71,5.95s-6.62-2.69-6.71-5.95v-28.78h-3.65c-2.69-.1-4.8-2.49-4.8-5.28s2.11-5.28,4.8-5.28h3.65v-11.7c.1-3.26,3.17-5.95,6.71-5.95m0-9c-8.42,0-15.47,6.59-15.71,14.68v.13s0,.13,0,.13v3.82c-4.95,2.17-8.44,7.25-8.44,13.16s3.45,10.95,8.44,13.13v21.18c.24,8.1,7.29,14.68,15.71,14.68s15.71-6.7,15.71-14.95v-20.39c5.76-1.78,9.88-7.21,9.88-13.66s-4.17-11.94-9.88-13.69v-3.29c0-8.24-7.05-14.95-15.71-14.95h0Z"/>
        </g>
        <g>
          <path class="cls-7" d="m313.95,947.23c-15.91,0-27.9-12-27.9-27.9s11.73-27.62,27.9-27.62,27.42,12.04,27.42,28c0,3.85-2.53,7.12-6.02,8.22,1.4,2.12,1.95,4.67,1.54,7.17-.5,3.06-2.36,5.75-5.12,7.42-5.96,3.89-12.98,4.71-17.83,4.71Z"/>
          <path class="cls-6" d="m313.95,896.21c12.76,0,22.92,9.4,22.92,23.5,0,2.4-2.01,4.12-4.12,4.12h-28.87c.67,5.18,6.33,7.39,11.03,7.39,2.69,0,4.99-.19,7.77-2.11,1.32-.91,2.7-1.32,4.01-1.32,1.74,0,3.33.73,4.43,1.99,2.49,2.88,1.53,7-1.73,8.92-4.51,2.97-10.17,4.03-15.44,4.03-12.85,0-23.4-9.3-23.4-23.4s10.55-23.12,23.4-23.12m-9.88,19.28h19.38c-.67-5.47-4.41-8.15-9.4-8.15s-8.82,2.49-9.98,8.15m9.88-28.28c-18.47,0-32.4,13.81-32.4,32.12s13.93,32.4,32.4,32.4c7.79,0,14.78-1.87,20.23-5.4,3.85-2.35,6.45-6.16,7.16-10.5.33-2.01.23-4.04-.27-5.97,2.93-2.41,4.81-6.06,4.81-10.15,0-18.53-13.72-32.5-31.92-32.5h0Z"/>
        </g>
        <g>
          <path class="cls-7" d="m414.38,946.85c-6.13,0-11.5-5.15-11.5-11.02v-16.03h-14.5v16.03c0,6.08-5.16,11.02-11.5,11.02s-11.5-5.15-11.5-11.02v-54.13c.17-5.91,5.43-10.9,11.5-10.9s11.5,4.94,11.5,11.02v16.41h14.5v-16.54c.17-5.91,5.43-10.9,11.5-10.9s11.5,4.94,11.5,11.02v54c0,6.08-5.16,11.02-11.5,11.02Z"/>
          <path class="cls-6" d="m414.38,875.3c3.84,0,7,2.97,7,6.52v54c0,3.55-3.17,6.52-7,6.52s-7-3.07-7-6.52v-20.53h-23.5v20.53c0,3.55-3.17,6.52-7,6.52s-7-3.07-7-6.52v-54c.1-3.45,3.36-6.52,7-6.52,3.84,0,7,2.97,7,6.52v20.91h23.5v-20.91c.1-3.45,3.36-6.52,7-6.52m0-9c-8.44,0-15.77,6.99-16,15.27v.12s0,.12,0,.12v11.91h-5.5v-11.91c0-8.56-7.18-15.52-16-15.52s-15.77,6.99-16,15.27v.12s0,.12,0,.12v54c0,8.41,7.33,15.52,16,15.52s16-6.96,16-15.52v-11.53h5.5v11.53c0,8.41,7.33,15.52,16,15.52s16-6.96,16-15.52v-54c0-8.56-7.18-15.52-16-15.52h0Z"/>
        </g>
        <g>
          <path class="cls-7" d="m454.76,947.23c-15.96,0-28-12-28-27.9s11.78-27.62,28-27.62,28.1,11.61,28.1,27.62-12.08,27.9-28.1,27.9Zm0-33.57c-2.77,0-5.57,1.95-5.57,5.67,0,3.91,2.8,5.95,5.57,5.95,3.28,0,5.67-2.5,5.67-5.95,0-3.89-2.94-5.67-5.67-5.67Z"/>
          <path class="cls-6" d="m454.76,896.21c13.04,0,23.6,9.02,23.6,23.12s-10.55,23.4-23.6,23.4-23.5-9.3-23.5-23.4,10.46-23.12,23.5-23.12m0,33.57c5.56,0,10.17-4.32,10.17-10.45s-4.6-10.17-10.17-10.17-10.07,4.12-10.07,10.17,4.6,10.45,10.07,10.45m0-42.57c-8.77,0-16.88,3.1-22.83,8.73-6.24,5.9-9.67,14.21-9.67,23.38,0,18.47,13.97,32.4,32.5,32.4s32.6-13.93,32.6-32.4c0-9.18-3.46-17.49-9.74-23.4-5.97-5.62-14.09-8.72-22.86-8.72h0Zm0,33.57c-.69,0-1.07-.52-1.07-1.45,0-.38,0-1.17,1.07-1.17,1.17,0,1.17.76,1.17,1.17,0,.96-.39,1.45-1.17,1.45h0Z"/>
        </g>
        <g>
          <path class="cls-7" d="m508.77,947.23c-15.96,0-28-12-28-27.9s11.78-27.62,28-27.62,28.1,11.61,28.1,27.62-12.08,27.9-28.1,27.9Zm0-33.57c-2.77,0-5.57,1.95-5.57,5.67,0,3.91,2.8,5.95,5.57,5.95,3.28,0,5.67-2.5,5.67-5.95,0-3.89-2.94-5.67-5.67-5.67Z"/>
          <path class="cls-6" d="m508.77,896.21c13.04,0,23.6,9.02,23.6,23.12s-10.55,23.4-23.6,23.4-23.5-9.3-23.5-23.4,10.46-23.12,23.5-23.12m0,33.57c5.56,0,10.17-4.32,10.17-10.45s-4.6-10.17-10.17-10.17-10.07,4.12-10.07,10.17,4.6,10.45,10.07,10.45m0-42.57c-8.77,0-16.88,3.1-22.83,8.73-6.24,5.9-9.67,14.21-9.67,23.38,0,18.47,13.97,32.4,32.5,32.4s32.6-13.93,32.6-32.4c0-9.18-3.46-17.49-9.74-23.4-5.97-5.62-14.09-8.72-22.86-8.72h0Zm0,33.57c-.69,0-1.07-.52-1.07-1.45,0-.38,0-1.17,1.07-1.17,1.17,0,1.17.76,1.17,1.17,0,.96-.39,1.45-1.17,1.45h0Z"/>
        </g>
        <g>
          <path class="cls-7" d="m574.88,946.85c-3.22,0-6.24-1.28-8.1-3.43l-7.2-7.75v.73c0,5.76-5.03,10.45-11.21,10.45s-11.04-4.63-11.21-10.31v-58.49c.17-5.69,5.2-10.32,11.21-10.32s11.21,4.69,11.21,10.45v20.33l2.68-2.7c2.03-2.24,4.96-3.52,8.06-3.52,2.46,0,4.83.83,6.69,2.35,2.21,1.78,3.63,4.44,3.89,7.29.26,2.8-.61,5.52-2.45,7.67l-.13.16-7.4,7.2,11.69,12.22c2.17,2.33,3.23,5.37,2.96,8.39-.25,2.77-1.63,5.31-3.8,6.98-1.83,1.5-4.27,2.32-6.89,2.32Z"/>
          <path class="cls-6" d="m548.38,872.23c3.65,0,6.71,2.59,6.71,5.95v31.27l10.46-10.55c1.2-1.36,2.99-2.11,4.78-2.11,1.36,0,2.73.43,3.85,1.34,2.49,2.01,3.17,5.85.86,8.54l-10.46,10.17,14.77,15.44c2.49,2.69,2.3,6.71-.38,8.73-1.08.91-2.59,1.35-4.09,1.35-1.84,0-3.68-.66-4.73-1.92l-15.06-16.21v12.18c0,3.36-3.07,5.95-6.71,5.95s-6.62-2.69-6.71-5.95v-58.22c.1-3.26,3.17-5.95,6.71-5.95m0-9c-8.42,0-15.47,6.59-15.71,14.68v.13s0,.13,0,.13v58.49c.24,8.1,7.29,14.68,15.71,14.68,5.55,0,10.43-2.75,13.23-6.89l1.83,1.97c2.74,3.13,6.89,4.93,11.44,4.93,3.63,0,7.06-1.17,9.69-3.3,3.13-2.44,5.13-6.1,5.49-10.1.38-4.28-1.11-8.58-4.1-11.8l-.05-.05-.05-.05-8.6-8.99,4.06-3.94.29-.28.27-.31c2.64-3.08,3.88-6.98,3.52-11.01-.37-4.05-2.4-7.83-5.56-10.39-2.63-2.14-6.02-3.34-9.5-3.34-2.18,0-4.3.45-6.24,1.3v-10.91c0-8.24-7.05-14.95-15.71-14.95h0Z"/>
        </g>
        <g>
          <path class="cls-7" d="m604.59,947.33c-8.86,0-19.16-3.9-22.19-12.61-1.72-4.98.42-10.39,4.85-12.32.34-.15.68-.29,1.03-.4-5.18-4.77-5.18-10.01-5.18-13.03,0-9.44,10.01-17.34,21.86-17.34,9.22,0,16.52,3.52,20.02,9.65,2.77,4.89,1.55,10.45-2.83,12.95-.43.25-.88.47-1.32.67,6.95,5,7.62,11.62,7.62,13.94,0,12.15-12.01,18.5-23.88,18.5Z"/>
          <path class="cls-6" d="m604.97,896.12c6.43,0,13.04,2.01,16.11,7.39,1.63,2.88.86,5.66-1.15,6.81-1.16.67-2.29.98-3.41.98-1.74,0-3.43-.75-5.13-2.04-1.92-1.44-3.65-2.01-5.37-2.01-2.88,0-4.89.96-4.89,2.69,0,1.44,1.15,2.3,3.84,3.17l6.81,2.3c10.84,3.55,12.18,10.55,12.18,13.43,0,9.5-9.97,14-19.38,14-7.19,0-15.63-2.97-17.94-9.59-.96-2.78.19-5.75,2.4-6.71.88-.4,1.74-.57,2.55-.57,1.95,0,3.63.98,4.64,2.2,2.4,2.59,5.28,3.93,8.44,3.93,2.97,0,5.76-.48,5.76-2.78,0-1.92-1.15-2.59-4.41-3.64l-5.08-1.82c-13.43-4.51-13.33-10.84-13.33-14.96,0-6.62,7.96-12.76,17.36-12.76m0-9c-14.29,0-26.36,9.96-26.36,21.76v.09c0,3.76.51,7.96,2.93,11.95-3.82,3.74-5.31,9.7-3.4,15.26,1.87,5.39,5.94,9.69,11.77,12.47,4.32,2.06,9.53,3.19,14.67,3.19,16.44,0,28.38-9.67,28.38-23,0-2.28-.46-6.8-3.52-11.43-.49-.74-1.02-1.45-1.59-2.13,3.61-4.27,4.2-10.67,1.07-16.2-4.34-7.6-13.07-11.95-23.94-11.95h0Z"/>
        </g>
      </g>
    </g>
    <g id="Foreground_Text" data-name="Foreground Text">
      <g>
        <path class="cls-7" d="m179.9,805.57c3.74-1.44,7.29.58,8.63,3.36,1.44,2.97,4.7,6.24,10.65,6.24s9.59-2.69,9.69-7c.1-2.97-1.25-5.56-7.96-7.48l-7.96-2.21c-14.58-4.51-17.07-12.85-17.07-18.8,0-11.8,10.07-19.76,22.73-19.76,9.5,0,16.59,4.12,20.14,11.03,1.63,3.17.29,6.23-2.11,7.77-3.45,2.21-6.52,1.25-8.82-1.63-2.78-3.55-6.43-4.6-9.4-4.6-4.89,0-8.54,2.88-8.54,6.81,0,1.73.67,4.89,7.1,6.71l7.87,2.3c16.02,4.6,18.32,13.62,18.13,19.95-.19,13.14-12.09,19.38-23.79,19.38s-20.14-5.66-23.02-14.2c-1.06-3.36.48-6.62,3.74-7.87Z"/>
        <path class="cls-7" d="m256.35,821.59c-1.34,3.55-3.74,5.66-7.39,5.66h-.58c-3.55,0-6.23-2.11-7.67-5.66l-13.52-31.84c-1.15-3.07.67-7.1,3.93-7.96,4.22-1.05,7.19.86,8.34,3.84l9.11,24.17,9.11-24.17c1.06-2.97,4.12-4.89,8.34-3.84,3.26.86,5.08,4.89,3.93,7.96l-13.62,31.84Z"/>
        <path class="cls-7" d="m313.62,823.6c-4.51,2.97-10.17,4.03-15.44,4.03-12.85,0-23.4-9.3-23.4-23.4s10.55-23.12,23.4-23.12,22.92,9.4,22.92,23.5c0,2.4-2.01,4.12-4.12,4.12h-28.87c.67,5.18,6.33,7.39,11.03,7.39,2.69,0,4.99-.19,7.77-2.11,3.07-2.11,6.52-1.54,8.44.67,2.49,2.88,1.53,7-1.73,8.92Zm-5.95-23.21c-.67-5.47-4.41-8.15-9.4-8.15s-8.82,2.49-9.98,8.15h19.38Z"/>
        <path class="cls-7" d="m342.78,821.3c0,3.36-3.07,5.95-6.71,5.95s-6.62-2.69-6.71-5.95v-58.22c.1-3.26,3.17-5.95,6.71-5.95s6.71,2.59,6.71,5.95v58.22Z"/>
        <path class="cls-7" d="m358.22,781.97v-11.7c.1-3.26,3.17-5.95,6.71-5.95s6.71,2.59,6.71,5.95v11.7h5.08c2.69,0,4.8,2.4,4.8,5.28s-2.11,5.18-4.8,5.28h-5.08v28.78c0,3.36-3.07,5.95-6.71,5.95s-6.62-2.69-6.71-5.95v-28.78h-3.65c-2.69-.1-4.8-2.49-4.8-5.28s2.11-5.28,4.8-5.28h3.65Z"/>
        <path class="cls-7" d="m424.02,823.6c-4.51,2.97-10.17,4.03-15.44,4.03-12.85,0-23.4-9.3-23.4-23.4s10.55-23.12,23.4-23.12,22.92,9.4,22.92,23.5c0,2.4-2.01,4.12-4.12,4.12h-28.87c.67,5.18,6.33,7.39,11.03,7.39,2.69,0,4.99-.19,7.77-2.11,3.07-2.11,6.52-1.54,8.44.67,2.49,2.88,1.54,7-1.73,8.92Zm-5.95-23.21c-.67-5.47-4.41-8.15-9.4-8.15s-8.82,2.49-9.98,8.15h19.38Z"/>
        <path class="cls-7" d="m483.01,816.31c2.4,2.3,2.01,6.71-.67,9.11-2.49,2.4-7,2.4-9.11,0l-18.61-21.01v16.31c0,3.55-3.17,6.52-7,6.52s-7-3.07-7-6.52v-54c.1-3.45,3.36-6.52,7-6.52,3.84,0,7,2.97,7,6.52v15.63l14.1-19.57c1.82-2.69,5.95-3.36,8.73-1.63,3.07,1.92,4.51,5.85,2.3,8.63l-18.03,23.6,21.29,22.92Z"/>
        <path class="cls-7" d="m498.84,757.61c4.51,0,8.15,3.36,8.15,7.77s-3.65,7.87-8.15,7.87-8.34-3.45-8.34-7.87,3.84-7.77,8.34-7.77Zm6.71,63.69c0,3.36-3.07,5.95-6.71,5.95s-6.62-2.69-6.71-5.95v-33.86c.1-3.26,3.17-5.95,6.71-5.95s6.71,2.59,6.71,5.95v33.86Z"/>
        <path class="cls-7" d="m520.8,781.97v-11.7c.1-3.26,3.17-5.95,6.71-5.95s6.71,2.59,6.71,5.95v11.7h5.08c2.69,0,4.8,2.4,4.8,5.28s-2.11,5.18-4.8,5.28h-5.08v28.78c0,3.36-3.07,5.95-6.71,5.95s-6.62-2.69-6.71-5.95v-28.78h-3.65c-2.69-.1-4.79-2.49-4.79-5.28s2.11-5.28,4.79-5.28h3.65Z"/>
        <path class="cls-7" d="m129.31,916.84l10.74,15.44c1.92,2.88.67,7.19-2.59,9.11-3.07,1.82-7.29.96-9.11-1.92l-12.66-20.91h-6.43v17.26c0,3.55-3.17,6.52-7,6.52s-7-3.07-7-6.52v-52.85c.1-3.93,2.49-7.19,6.71-7.19h20.24c14.77,0,21.77,10.55,21.96,21.29-.29,8.63-5.08,16.88-14.87,19.76Zm-20.05-28.68v18.61h12.56c5.47,0,8.34-4.99,8.34-9.3s-2.69-9.3-7.96-9.3h-12.95Z"/>
        <path class="cls-7" d="m149.55,919.33c0-14.1,10.45-23.12,23.5-23.12s23.6,9.02,23.6,23.12-10.55,23.4-23.6,23.4-23.5-9.3-23.5-23.4Zm33.67,0c0-6.04-4.6-10.17-10.17-10.17s-10.07,4.12-10.07,10.17,4.6,10.45,10.07,10.45,10.17-4.32,10.17-10.45Z"/>
        <path class="cls-7" d="m234.92,935.35c-2.4,4.51-7.67,7.39-12.95,7.39-10.07,0-16.5-4.99-16.5-17.75v-22.44c0-3.36,3.07-5.95,6.71-5.95s6.62,2.69,6.71,5.95v18.42c0,5.95,2.21,8.82,7.77,8.82,4.7,0,8.25-2.21,8.25-9.02v-18.22c0-3.36,3.07-5.95,6.71-5.95s6.62,2.69,6.71,5.95v33.86c-.1,3.26-3.17,5.95-6.71,5.95s-6.71-2.59-6.71-5.95v-1.06Z"/>
        <path class="cls-7" d="m263.6,897.08v-11.7c.1-3.26,3.17-5.95,6.71-5.95s6.71,2.59,6.71,5.95v11.7h5.08c2.69,0,4.8,2.4,4.8,5.28s-2.11,5.18-4.8,5.28h-5.08v28.78c0,3.36-3.07,5.95-6.71,5.95s-6.62-2.69-6.71-5.95v-28.78h-3.65c-2.69-.1-4.8-2.49-4.8-5.28s2.11-5.28,4.8-5.28h3.65Z"/>
        <path class="cls-7" d="m329.4,938.71c-4.51,2.97-10.17,4.03-15.44,4.03-12.85,0-23.4-9.3-23.4-23.4s10.55-23.12,23.4-23.12,22.92,9.4,22.92,23.5c0,2.4-2.01,4.12-4.12,4.12h-28.87c.67,5.18,6.33,7.39,11.03,7.39,2.69,0,4.99-.19,7.77-2.11,3.07-2.11,6.52-1.54,8.44.67,2.49,2.88,1.53,7-1.73,8.92Zm-5.95-23.21c-.67-5.47-4.41-8.15-9.4-8.15s-8.82,2.49-9.98,8.15h19.38Z"/>
        <path class="cls-7" d="m421.38,935.83c0,3.55-3.17,6.52-7,6.52s-7-3.07-7-6.52v-20.53h-23.5v20.53c0,3.55-3.17,6.52-7,6.52s-7-3.07-7-6.52v-54c.1-3.45,3.36-6.52,7-6.52,3.84,0,7,2.97,7,6.52v20.91h23.5v-20.91c.1-3.45,3.36-6.52,7-6.52,3.84,0,7,2.97,7,6.52v54Z"/>
        <path class="cls-7" d="m431.26,919.33c0-14.1,10.46-23.12,23.5-23.12s23.6,9.02,23.6,23.12-10.55,23.4-23.6,23.4-23.5-9.3-23.5-23.4Zm33.67,0c0-6.04-4.6-10.17-10.17-10.17s-10.07,4.12-10.07,10.17,4.6,10.45,10.07,10.45,10.17-4.32,10.17-10.45Z"/>
        <path class="cls-7" d="m485.27,919.33c0-14.1,10.46-23.12,23.5-23.12s23.6,9.02,23.6,23.12-10.55,23.4-23.6,23.4-23.5-9.3-23.5-23.4Zm33.67,0c0-6.04-4.6-10.17-10.17-10.17s-10.07,4.12-10.07,10.17,4.6,10.45,10.07,10.45,10.17-4.32,10.17-10.45Z"/>
        <path class="cls-7" d="m555.09,924.22v12.18c0,3.36-3.07,5.95-6.71,5.95s-6.62-2.69-6.71-5.95v-58.22c.1-3.26,3.17-5.95,6.71-5.95s6.71,2.59,6.71,5.95v31.27l10.46-10.55c2.11-2.4,6.04-2.88,8.63-.77,2.49,2.01,3.17,5.85.86,8.54l-10.46,10.17,14.77,15.44c2.49,2.69,2.3,6.71-.38,8.73-2.4,2.01-6.91,1.73-8.82-.58l-15.06-16.21Z"/>
        <path class="cls-7" d="m589.05,926.52c2.97-1.34,5.75-.1,7.19,1.63,2.4,2.59,5.28,3.93,8.44,3.93,2.97,0,5.76-.48,5.76-2.78,0-1.92-1.15-2.59-4.41-3.64l-5.08-1.82c-13.43-4.51-13.33-10.84-13.33-14.96,0-6.62,7.96-12.76,17.36-12.76,6.43,0,13.04,2.01,16.11,7.39,1.63,2.88.86,5.66-1.15,6.81-2.97,1.73-5.75,1.05-8.54-1.05-1.92-1.44-3.65-2.01-5.37-2.01-2.88,0-4.89.96-4.89,2.69,0,1.44,1.15,2.3,3.84,3.17l6.81,2.3c10.84,3.55,12.18,10.55,12.18,13.43,0,9.5-9.97,14-19.38,14-7.19,0-15.63-2.97-17.94-9.59-.96-2.78.19-5.75,2.4-6.71Z"/>
      </g>
    </g>
  </g>
</svg>